<mxfile host="app.diagrams.net" modified="2024-06-25T17:45:44.558Z" agent="Mozilla/5.0 (Windows NT 10.0; Win64; x64) AppleWebKit/537.36 (KHTML, like Gecko) Chrome/124.0.0.0 YaBrowser/24.6.0.0 Safari/537.36" version="24.6.3" etag="iIvtv6QFPFM0xv9V_6SU" type="github">
  <diagram name="Страница — 1" id="z5hIB4V5HR1mc_FfbwNJ">
    <mxGraphModel>
      <root>
        <mxCell id="0" />
        <mxCell id="1" parent="0" />
      </root>
    </mxGraphModel>
  </diagram>
</mxfile>
